<?xml version="1.0" encoding="UTF-8"?>
<svg xmlns="http://www.w3.org/2000/svg" style="display:none" aria-hidden="true">
    <symbol id="icon-guitar" viewBox="0 0 24 24" fill="none" stroke="currentColor" stroke-width="1.75" stroke-linecap="round" stroke-linejoin="round"><path d="m11.9 12.1 4.514-4.514" /> <path d="M20.1 2.3a1 1 0 0 0-1.4 0l-1.114 1.114A2 2 0 0 0 17 4.828v1.344a2 2 0 0 1-.586 1.414A2 2 0 0 1 17.828 7h1.344a2 2 0 0 0 1.414-.586L21.7 5.3a1 1 0 0 0 0-1.4z" /> <path d="m6 16 2 2" /> <path d="M8.23 9.85A3 3 0 0 1 11 8a5 5 0 0 1 5 5 3 3 0 0 1-1.85 2.77l-.92.38A2 2 0 0 0 12 18a4 4 0 0 1-4 4 6 6 0 0 1-6-6 4 4 0 0 1 4-4 2 2 0 0 0 1.85-1.23z" /></symbol>
    <symbol id="icon-drum" viewBox="0 0 24 24" fill="none" stroke="currentColor" stroke-width="1.75" stroke-linecap="round" stroke-linejoin="round"><path d="m2 2 8 8" /> <path d="m22 2-8 8" /> <ellipse cx="12" cy="9" rx="10" ry="5" /> <path d="M7 13.4v7.9" /> <path d="M12 14v8" /> <path d="M17 13.4v7.9" /> <path d="M2 9v8a10 5 0 0 0 20 0V9" /></symbol>
    <symbol id="icon-piano" viewBox="0 0 24 24" fill="none" stroke="currentColor" stroke-width="1.75" stroke-linecap="round" stroke-linejoin="round"><path d="M18.5 8c-1.4 0-2.6-.8-3.2-2A6.87 6.87 0 0 0 2 9v11a2 2 0 0 0 2 2h16a2 2 0 0 0 2-2v-8.5C22 9.6 20.4 8 18.5 8" /> <path d="M2 14h20" /> <path d="M6 14v4" /> <path d="M10 14v4" /> <path d="M14 14v4" /> <path d="M18 14v4" /></symbol>
    <symbol id="icon-microphone" viewBox="0 0 24 24" fill="none" stroke="currentColor" stroke-width="1.75" stroke-linecap="round" stroke-linejoin="round"><path d="m11 7.601-5.994 8.19a1 1 0 0 0 .1 1.298l.817.818a1 1 0 0 0 1.314.087L15.09 12" /> <path d="M16.5 21.174C15.5 20.5 14.372 20 13 20c-2.058 0-3.928 2.356-6 2-2.072-.356-2.775-3.369-1.5-4.5" /> <circle cx="16" cy="7" r="5" /></symbol>
    <symbol id="icon-music-note" viewBox="0 0 24 24" fill="none" stroke="currentColor" stroke-width="1.75" stroke-linecap="round" stroke-linejoin="round"><path d="M9 18V5l12-2v13" /> <circle cx="6" cy="18" r="3" /> <circle cx="18" cy="16" r="3" /></symbol>
    <symbol id="icon-music-staff" viewBox="0 0 24 24" fill="none" stroke="currentColor" stroke-width="1.75" stroke-linecap="round" stroke-linejoin="round"><circle cx="8" cy="18" r="4" /> <path d="M12 18V2l7 4" /></symbol>
    <symbol id="icon-music-notes" viewBox="0 0 24 24" fill="none" stroke="currentColor" stroke-width="1.75" stroke-linecap="round" stroke-linejoin="round"><circle cx="12" cy="18" r="4" /> <path d="M16 18V2" /></symbol>
    <symbol id="icon-music-generic" viewBox="0 0 24 24" fill="none" stroke="currentColor" stroke-width="1.75" stroke-linecap="round" stroke-linejoin="round"><path d="M9 18V5l12-2v13" /> <path d="m9 9 12-2" /> <circle cx="6" cy="18" r="3" /> <circle cx="18" cy="16" r="3" /></symbol>
    <symbol id="icon-audio-lines" viewBox="0 0 24 24" fill="none" stroke="currentColor" stroke-width="1.75" stroke-linecap="round" stroke-linejoin="round"><path d="M2 10v3" /> <path d="M6 6v11" /> <path d="M10 3v18" /> <path d="M14 8v7" /> <path d="M18 5v13" /> <path d="M22 10v3" /></symbol>
    <symbol id="icon-timer" viewBox="0 0 24 24" fill="none" stroke="currentColor" stroke-width="1.75" stroke-linecap="round" stroke-linejoin="round"><line x1="10" x2="14" y1="2" y2="2" /> <line x1="12" x2="15" y1="14" y2="11" /> <circle cx="12" cy="14" r="8" /></symbol>
    <symbol id="icon-book-open" viewBox="0 0 24 24" fill="none" stroke="currentColor" stroke-width="1.75" stroke-linecap="round" stroke-linejoin="round"><path d="M12 7v14" /> <path d="M3 18a1 1 0 0 1-1-1V4a1 1 0 0 1 1-1h5a4 4 0 0 1 4 4 4 4 0 0 1 4-4h5a1 1 0 0 1 1 1v13a1 1 0 0 1-1 1h-6a3 3 0 0 0-3 3 3 3 0 0 0-3-3z" /></symbol>
    <symbol id="icon-chart-bar" viewBox="0 0 24 24" fill="none" stroke="currentColor" stroke-width="1.75" stroke-linecap="round" stroke-linejoin="round"><path d="M3 3v16a2 2 0 0 0 2 2h16" /> <path d="M18 17V9" /> <path d="M13 17V5" /> <path d="M8 17v-3" /></symbol>
    <symbol id="icon-library" viewBox="0 0 24 24" fill="none" stroke="currentColor" stroke-width="1.75" stroke-linecap="round" stroke-linejoin="round"><rect width="8" height="18" x="3" y="3" rx="1" /> <path d="M7 3v18" /> <path d="M20.4 18.9c.2.5-.1 1.1-.6 1.3l-1.9.7c-.5.2-1.1-.1-1.3-.6L11.1 5.1c-.2-.5.1-1.1.6-1.3l1.9-.7c.5-.2 1.1.1 1.3.6Z" /></symbol>
    <symbol id="icon-flask" viewBox="0 0 24 24" fill="none" stroke="currentColor" stroke-width="1.75" stroke-linecap="round" stroke-linejoin="round"><path d="M14 2v6a2 2 0 0 0 .245.96l5.51 10.08A2 2 0 0 1 18 22H6a2 2 0 0 1-1.755-2.96l5.51-10.08A2 2 0 0 0 10 8V2" /> <path d="M6.453 15h11.094" /> <path d="M8.5 2h7" /></symbol>
    <symbol id="icon-compass" viewBox="0 0 24 24" fill="none" stroke="currentColor" stroke-width="1.75" stroke-linecap="round" stroke-linejoin="round"><circle cx="12" cy="12" r="10" /> <path d="m16.24 7.76-1.804 5.411a2 2 0 0 1-1.265 1.265L7.76 16.24l1.804-5.411a2 2 0 0 1 1.265-1.265z" /></symbol>
    <symbol id="icon-app-window" viewBox="0 0 24 24" fill="none" stroke="currentColor" stroke-width="1.75" stroke-linecap="round" stroke-linejoin="round"><rect x="2" y="4" width="20" height="16" rx="2" /> <path d="M10 4v4" /> <path d="M2 8h20" /> <path d="M6 4v4" /></symbol>
</svg>
